# xmcd
#
# Track frame offsets:
#	150
#	23137
#	45359
#	65224
#	87402
#	106732
#	124250
#	145398
#	163833
#	184097
#	201799
#	214485
#	228199
#	245302
#
# Disc length: 3626 seconds
#
# Revision: 0
# Processed by: cddbd v1.5.2PL0 Copyright (c) Steve Scherf et al.
# Submitted via: dBpowerAMP V4.0
#
DISCID=c80e280e
DTITLE=Ray Beadle  - The Good life
DYEAR=2002
DGENRE=Blues
TTITLE0=Queen Bee
TTITLE1=mmm mmm mmm
TTITLE2=I wish I knew
TTITLE3=Just love me
TTITLE4=Broken Man
TTITLE5=Hot little mama
TTITLE6=What you got
TTITLE7=In my room
TTITLE8=You got my heart
TTITLE9=One hot biscuit
TTITLE10=Shark fin soup
TTITLE11=Shouldve been me
TTITLE12=Oh Babe
TTITLE13=THe good life
EXTD=
EXTT0=
EXTT1=
EXTT2=
EXTT3=
EXTT4=
EXTT5=
EXTT6=
EXTT7=
EXTT8=
EXTT9=
EXTT10=
EXTT11=
EXTT12=
EXTT13=
PLAYORDER=
